Coordinates
version=1
nRows=26
nColumns=22
inDegrees=yes

Units are S.I. units (second, meters, Newtons, ...)
If the header above contains a line with 'inDegrees', this indicates whether rotational values are in degrees (yes) or radians (no).

endheader
time	pelvis_tilt	pelvis_list	pelvis_rotation	pelvis_tx	pelvis_ty	pelvis_tz	hip_flexion_r	hip_adduction_r	hip_rotation_r	knee_angle_r	ankle_angle_r	subtalar_angle_r	hip_flexion_l	hip_adduction_l	hip_rotation_l	knee_angle_l	ankle_angle_l	subtalar_angle_l	lumbar_extension	lumbar_bending	lumbar_rotation
      1.20000000	     -1.01335446	      4.09496524	    179.57494066	     -1.28082375	      1.02749283	     -0.09430999	      5.55057143	      9.02402611	     -5.43741161	     -9.19889482	      2.48846470	     -3.03628129	     14.55868184	     -8.03158611	     -8.32555660	    -35.42661013	     12.62244390	      2.56324949	    -13.30648388	      4.36403084	      7.16752804
      1.21000000	     -1.11183919	      4.17934703	    179.55887188	     -1.27821633	      1.02763486	     -0.09428158	      5.51696935	      9.10819433	     -5.39940570	     -9.03503768	      2.26211232	     -2.96657793	     14.54283464	     -8.10118800	     -7.92007796	    -36.89872397	     12.68270943	      2.50909766	    -13.31573388	      4.50088257	      7.17396420
      1.22000000	     -1.18035733	      4.26262732	    179.55947511	     -1.27551276	      1.02772586	     -0.09414448	      5.57035375	      9.17831195	     -5.41682955	     -8.95821748	      2.00522862	     -2.83918102	     14.54481183	     -8.13221506	     -7.43335080	    -38.39130603	     12.74722974	      2.49008813	    -13.28998775	      4.64270366	      7.14150822
      1.23000000	     -1.24374720	      4.34560474	    179.54359249	     -1.27277264	      1.02781180	     -0.09394926	      5.64067519	      9.24443905	     -5.38540755	     -8.90132575	      1.80501640	     -2.68587515	     14.51777826	     -8.14564071	     -6.94202801	    -39.88062096	     12.74663125	      2.53608475	    -13.25216017	      4.78461083	      7.14005172
      1.24000000	     -1.34387442	      4.44347382	    179.50427305	     -1.27000650	      1.02795462	     -0.09371300	      5.68933596	      9.32360367	     -5.31554487	     -8.87582485	      1.57080458	     -2.56132942	     14.40714726	     -8.18049025	     -6.51661411	    -41.34759268	     12.72614186	      2.60071212	    -13.25418485	      4.94704271	      7.14149227
      1.25000000	     -1.44578332	      4.55007443	    179.44758318	     -1.26719576	      1.02808625	     -0.09346003	      5.75792605	      9.41012095	     -5.22194684	     -8.88645697	      1.34697428	     -2.41731244	     14.25513330	     -8.22882586	     -6.12901570	    -42.78756889	     12.67460313	      2.70659737	    -13.25303637	      5.11137379	      7.15998465
      1.26000000	     -1.55525013	      4.66535436	    179.36799394	     -1.26434557	      1.02821834	     -0.09317083	      5.83493469	      9.50325917	     -5.09878762	     -8.92555068	      1.12771991	     -2.26353268	     14.04894395	     -8.29547756	     -5.80148496	    -44.18494338	     12.59444070	      2.84568658	    -13.25634385	      5.28634492	      7.20062695
      1.27000000	     -1.67622241	      4.79128580	    179.26782749	     -1.26146569	      1.02835150	     -0.09287013	      5.91496503	      9.60743151	     -4.94960990	     -8.99213187	      0.90677118	     -2.11493455	     13.78090122	     -8.38851817	     -5.53842561	    -45.52683538	     12.48998982	      3.00112921	    -13.26535019	      5.46739113	      7.25334939
      1.28000000	     -1.80278966	      4.92778687	    179.14942845	     -1.25854178	      1.02847117	     -0.09255993	      6.00084265	      9.72249067	     -4.78293414	     -9.07735651	      0.68585061	     -1.95108910	     13.45845485	     -8.50495033	     -5.32291642	    -46.80707698	     12.37280405	      3.20553150	    -13.27650325	      5.65436837	      7.32216608
      1.29000000	     -1.94058153	      5.06277903	    179.01514810	     -1.25556667	      1.02858423	     -0.09224107	      6.09163027	      9.83487992	     -4.60709449	     -9.19095672	      0.49158571	     -1.75058508	     13.07332965	     -8.63004333	     -5.15246136	    -48.01250448	     12.22162551	      3.51449774	    -13.29524666	      5.83206759	      7.39910165
      1.30000000	     -2.06975198	      5.22009670	    178.87633057	     -1.25254289	      1.02864700	     -0.09189838	      6.19458180	      9.97197340	     -4.41844615	     -9.30355307	      0.25382023	     -1.64359452	     12.65190867	     -8.78574113	     -5.00511396	    -49.14042211	     12.07604057	      3.68209603	    -13.29653937	      6.03395999	      7.46833398
      1.31000000	     -2.21294309	      5.37073628	    178.72912852	     -1.24946022	      1.02870639	     -0.09154080	      6.29586690	     10.09955631	     -4.24165390	     -9.43725384	      0.05598292	     -1.45523635	     12.16400481	     -8.93541619	     -4.87817907	    -50.17211301	     11.88349328	      4.04585954	    -13.30926519	      6.22078644	      7.54691040
      1.32000000	     -2.32892967	      5.54048591	    178.58835980	     -1.24630411	      1.02867922	     -0.09115608	      6.42502808	     10.24896675	     -4.05757600	     -9.55766996	     -0.18213684	     -1.34740154	     11.66718612	     -9.10234405	     -4.74031709	    -51.11390252	     11.68265996	      4.26750216	    -13.28375112	      6.42939818	      7.59792766
      1.33000000	     -2.44842794	      5.70992905	    178.45150260	     -1.24307498	      1.02862318	     -0.09073710	      6.55533690	     10.39586259	     -3.89027652	     -9.67904271	     -0.40791554	     -1.20702452	     11.12307582	     -9.26418820	     -4.60186960	    -51.94876973	     11.44691583	      4.60753452	    -13.25739860	      6.63520728	      7.64284239
      1.34000000	     -2.56086558	      5.87446780	    178.32428996	     -1.23975889	      1.02851915	     -0.09027279	      6.69875560	     10.53470487	     -3.74622410	     -9.79955500	     -0.62674898	     -1.06359070	     10.54788317	     -9.41040356	     -4.44838135	    -52.66984555	     11.19854065	      5.02535699	    -13.21850545	      6.83511443	      7.66705198
      1.35000000	     -2.65779660	      6.03982413	    178.20744114	     -1.23635412	      1.02835059	     -0.08976222	      6.85971206	     10.67253745	     -3.62198392	     -9.90989024	     -0.85043091	     -0.93455026	      9.95407478	     -9.54486309	     -4.27098368	    -53.27386613	     10.94324969	      5.47721421	    -13.15667728	      7.03770076	      7.66990656
      1.36000000	     -2.74798623	      6.19322769	    178.10193642	     -1.23283630	      1.02812583	     -0.08919450	      7.03778924	     10.79410503	     -3.53055675	    -10.02306299	     -1.06251779	     -0.80500607	      9.33926051	     -9.65424036	     -4.08259548	    -53.75892018	     10.70698656	      6.01891446	    -13.08731356	      7.22750144	      7.65270282
      1.37000000	     -2.82210811	      6.33332529	    178.00030258	     -1.22921867	      1.02784178	     -0.08856870	      7.24540718	     10.89731354	     -3.47636318	    -10.14649504	     -1.26033348	     -0.68866308	      8.70622217	     -9.73252725	     -3.88041327	    -54.10518584	     10.49211876	      6.59455679	    -12.99904351	      7.40650682	      7.62255899
      1.38000000	     -2.87989179	      6.47398239	    177.91387923	     -1.22548038	      1.02749194	     -0.08789273	      7.46656930	     11.00067016	     -3.43057897	    -10.24400447	     -1.47695785	     -0.58506735	      8.06944462	     -9.79026656	     -3.64115892	    -54.32001128	     10.31118067	      7.16925417	    -12.89353898	      7.58632949	      7.57130851
      1.39000000	     -2.92165239	      6.61175423	    177.84720159	     -1.22162227	      1.02708013	     -0.08714481	      7.70099144	     11.09817947	     -3.40187788	    -10.31470083	     -1.71302703	     -0.49595606	      7.43178767	     -9.82045512	     -3.35939258	    -54.39587263	     10.15208499	      7.71171313	    -12.77208511	      7.76808810	      7.49105601
      1.40000000	     -2.95656369	      6.72269288	    177.76936806	     -1.21764632	      1.02661748	     -0.08636391	      7.96574700	     11.16392935	     -3.42027189	    -10.41606205	     -1.92073502	     -0.41267737	      6.77068959	     -9.80302325	     -3.08267412	    -54.31434748	     10.01482058	      8.31541800	    -12.64686266	      7.91665127	      7.42700179
      1.41000000	     -2.97606489	      6.82885991	    177.72107734	     -1.21352606	      1.02609271	     -0.08549527	      8.23731680	     11.22114582	     -3.44985610	    -10.47456269	     -2.15693508	     -0.34598543	      6.12050632	     -9.74661713	     -2.73558580	    -54.08911227	      9.85853263	      8.84604450	    -12.50974900	      8.06578854	      7.31791799
      1.42000000	     -2.98773406	      6.91839075	    177.66261816	     -1.20926099	      1.02550866	     -0.08458855	      8.53058168	     11.25837556	     -3.50593724	    -10.54187960	     -2.38097158	     -0.28812684	      5.45686201	     -9.64684651	     -2.37249953	    -53.70433692	      9.69167565	      9.39091363	    -12.37240927	      8.19346890	      7.22529749
      1.43000000	     -2.99068304	      7.00650407	    177.59841724	     -1.20484821	      1.02485469	     -0.08365189	      8.83940189	     11.29205605	     -3.59402713	    -10.60275653	     -2.61016303	     -0.23941750	      4.78693125	     -9.52465547	     -1.98882086	    -53.16492121	      9.50365269	      9.92953165	    -12.23493722	      8.31588063	      7.14457366
      1.44000000	     -2.97786063	      7.07206402	    177.55998228	     -1.20024116	      1.02412486	     -0.08261540	      9.16369902	     11.29684996	     -3.68215305	    -10.63365116	     -2.83919279	     -0.20468545	      4.13965708	     -9.33928035	     -1.51777951	    -52.47730222	      9.21963852	     10.32018825	    -12.08982332	      8.41746814	      7.01900070
      1.45000000	     -2.97367973	      7.13993469	    177.50617782	     -1.19545723	      1.02334617	     -0.08156542	      9.49259711	     11.30168608	     -3.80697109	    -10.67078299	     -3.09624300	     -0.17442485	      3.47095802	     -9.14367891	     -1.04353647	    -51.63446047	      8.91629746	     10.76094801	    -11.97138468	      8.51491189	      6.91856739
